<mxfile host="app.diagrams.net" modified="2024-05-24T12:56:03.298Z" agent="Mozilla/5.0 (Windows NT 10.0; Win64; x64) AppleWebKit/537.36 (KHTML, like Gecko) Chrome/125.0.0.0 Safari/537.36" etag="Pi0Bsrojm2jiYz41oTA1" version="24.4.6" type="device">
  <diagram name="페이지-1" id="i83iV2_AebKQE_UNfp0H">
    <mxGraphModel dx="-37" dy="1124" grid="1" gridSize="10" guides="1" tooltips="1" connect="1" arrows="1" fold="1" page="1" pageScale="1" pageWidth="827" pageHeight="1169" math="0" shadow="0">
      <root>
        <mxCell id="0" />
        <mxCell id="1" parent="0" />
        <mxCell id="VnZN955LMP-njsd2s_tE-1" value="User" style="shape=umlActor;verticalLabelPosition=bottom;verticalAlign=top;html=1;outlineConnect=0;" parent="1" vertex="1">
          <mxGeometry x="910" y="270" width="30" height="60" as="geometry" />
        </mxCell>
        <mxCell id="VnZN955LMP-njsd2s_tE-5" style="edgeStyle=orthogonalEdgeStyle;rounded=0;orthogonalLoop=1;jettySize=auto;html=1;exitX=0;exitY=0.5;exitDx=0;exitDy=0;endArrow=none;endFill=0;" parent="1" source="VnZN955LMP-njsd2s_tE-4" target="VnZN955LMP-njsd2s_tE-1" edge="1">
          <mxGeometry relative="1" as="geometry" />
        </mxCell>
        <mxCell id="VnZN955LMP-njsd2s_tE-4" value=":main_menu" style="rounded=0;whiteSpace=wrap;html=1;" parent="1" vertex="1">
          <mxGeometry x="1070" y="270" width="120" height="60" as="geometry" />
        </mxCell>
        <mxCell id="VnZN955LMP-njsd2s_tE-12" style="rounded=0;orthogonalLoop=1;jettySize=auto;html=1;entryX=0;entryY=0.5;entryDx=0;entryDy=0;endArrow=none;endFill=0;exitX=1;exitY=0.5;exitDx=0;exitDy=0;" parent="1" source="VnZN955LMP-njsd2s_tE-4" target="VnZN955LMP-njsd2s_tE-11" edge="1">
          <mxGeometry relative="1" as="geometry">
            <mxPoint x="1190" y="460" as="sourcePoint" />
          </mxGeometry>
        </mxCell>
        <mxCell id="VnZN955LMP-njsd2s_tE-15" style="rounded=0;orthogonalLoop=1;jettySize=auto;html=1;exitX=0.5;exitY=1;exitDx=0;exitDy=0;entryX=0.5;entryY=0;entryDx=0;entryDy=0;endArrow=none;endFill=0;" parent="1" source="VnZN955LMP-njsd2s_tE-11" target="VnZN955LMP-njsd2s_tE-14" edge="1">
          <mxGeometry relative="1" as="geometry" />
        </mxCell>
        <mxCell id="VnZN955LMP-njsd2s_tE-11" value=":TrashController" style="rounded=0;whiteSpace=wrap;html=1;" parent="1" vertex="1">
          <mxGeometry x="1319" y="270" width="120" height="60" as="geometry" />
        </mxCell>
        <mxCell id="VnZN955LMP-njsd2s_tE-14" value=":DeletedEmailsService" style="rounded=0;whiteSpace=wrap;html=1;" parent="1" vertex="1">
          <mxGeometry x="1311" y="420" width="136" height="60" as="geometry" />
        </mxCell>
        <mxCell id="VnZN955LMP-njsd2s_tE-17" value="" style="endArrow=classic;html=1;rounded=0;" parent="1" edge="1">
          <mxGeometry width="50" height="50" relative="1" as="geometry">
            <mxPoint x="950" y="290" as="sourcePoint" />
            <mxPoint x="1060" y="290" as="targetPoint" />
          </mxGeometry>
        </mxCell>
        <mxCell id="VnZN955LMP-njsd2s_tE-18" value="1: trashDo(msgId)" style="text;html=1;align=center;verticalAlign=middle;whiteSpace=wrap;rounded=0;" parent="1" vertex="1">
          <mxGeometry x="950" y="264" width="110" height="30" as="geometry" />
        </mxCell>
        <mxCell id="VnZN955LMP-njsd2s_tE-23" value="" style="endArrow=classic;html=1;rounded=0;" parent="1" edge="1">
          <mxGeometry width="50" height="50" relative="1" as="geometry">
            <mxPoint x="1209" y="290" as="sourcePoint" />
            <mxPoint x="1309" y="290" as="targetPoint" />
          </mxGeometry>
        </mxCell>
        <mxCell id="VnZN955LMP-njsd2s_tE-24" value="3.1: trashDo(msgId)" style="text;html=1;align=center;verticalAlign=middle;whiteSpace=wrap;rounded=0;" parent="1" vertex="1">
          <mxGeometry x="1190" y="260" width="129" height="30" as="geometry" />
        </mxCell>
        <mxCell id="VnZN955LMP-njsd2s_tE-28" value="" style="endArrow=classic;html=1;rounded=0;" parent="1" edge="1">
          <mxGeometry width="50" height="50" relative="1" as="geometry">
            <mxPoint x="1390" y="340" as="sourcePoint" />
            <mxPoint x="1390" y="410" as="targetPoint" />
          </mxGeometry>
        </mxCell>
        <mxCell id="VnZN955LMP-njsd2s_tE-29" value="3.1.1:&amp;nbsp;saveDeletedEmail(username, msgId)" style="text;html=1;align=center;verticalAlign=middle;whiteSpace=wrap;rounded=0;" parent="1" vertex="1">
          <mxGeometry x="1390" y="360" width="211" height="30" as="geometry" />
        </mxCell>
        <mxCell id="VnZN955LMP-njsd2s_tE-31" value="" style="endArrow=classic;html=1;rounded=0;" parent="1" edge="1">
          <mxGeometry width="50" height="50" relative="1" as="geometry">
            <mxPoint x="1304.5" y="310" as="sourcePoint" />
            <mxPoint x="1204.5" y="310" as="targetPoint" />
          </mxGeometry>
        </mxCell>
        <mxCell id="VnZN955LMP-njsd2s_tE-32" value="3.2: &amp;lt;&amp;lt;redrect&amp;gt;&amp;gt;" style="text;html=1;align=center;verticalAlign=middle;whiteSpace=wrap;rounded=0;" parent="1" vertex="1">
          <mxGeometry x="1200" y="310" width="109" height="30" as="geometry" />
        </mxCell>
      </root>
    </mxGraphModel>
  </diagram>
</mxfile>
